<svg xmlns="http://www.w3.org/2000/svg" width="609.371" height="593.462" viewBox="0 0 609.371 593.462">
  <g id="Astronaut" transform="matrix(0.616, 0.788, -0.788, 0.616, 346.935, -35.825)">
    <path id="Path_69" data-name="Path 69" d="M127.606,59.452a18.157,18.157,0,0,1-18.135-18.135,20.66,20.66,0,0,1,19.47-19.748c10.268,0,18.54,11.675,18.54,21.335C147.47,53.262,137.378,59.452,127.606,59.452Zm1.336-26.636a9.619,9.619,0,0,0-8.216,8.493,6.888,6.888,0,0,0,6.88,6.88c4.164,0,8.628-2.127,8.628-5.293-.019-4.419-4.093-10.073-7.293-10.073Z" transform="translate(293.092 57.343)" fill="#fff"/>
    <path id="Path_70" data-name="Path 70" d="M130.847,134.459a23.406,23.406,0,0,1-23.379-23.379,27.21,27.21,0,0,1,25.278-25.672c13.273,0,23.961,15.276,23.961,27.926C156.733,126.558,143.572,134.459,130.847,134.459Zm1.9-37.8a16.131,16.131,0,0,0-14.023,14.417A12.14,12.14,0,0,0,130.847,123.2c7.023,0,14.6-3.77,14.6-9.87.026-6.974-6.389-16.672-12.691-16.672Z" transform="translate(287.581 232.996)" fill="#fff"/>
    <path id="Path_71" data-name="Path 71" d="M34.226,46.321A18.045,18.045,0,0,1,16.219,28.313,20.524,20.524,0,0,1,35.565,8.693c10.208,0,18.427,11.6,18.427,21.2C53.978,40.168,43.935,46.321,34.226,46.321ZM35.55,19.929a9.476,9.476,0,0,0-8.092,8.366,6.779,6.779,0,0,0,6.753,6.771c4.1,0,8.5-2.09,8.5-5.2C42.723,25.6,38.634,19.929,35.55,19.929Z" transform="translate(36.509 21.914)" fill="#fff"/>
    <path id="Path_72" data-name="Path 72" d="M35.619,56.332A14.822,14.822,0,0,1,20.812,41.524a16.743,16.743,0,0,1,15.79-16c8.508,0,15.107,9.225,15.107,17.163C51.709,51.23,43.527,56.332,35.619,56.332ZM36.6,36.782a5.721,5.721,0,0,0-4.536,4.742,3.556,3.556,0,0,0,3.553,3.553c2.393,0,4.836-1.2,4.836-2.386,0-2.637-2.581-5.909-3.853-5.909Z" transform="translate(49.147 68.236)" fill="#fff"/>
    <path id="Path_73" data-name="Path 73" d="M47.237,136.862A14.826,14.826,0,0,1,32.43,122.051a16.743,16.743,0,0,1,15.79-15.993c8.508,0,15.107,9.225,15.107,17.159C63.327,131.756,55.145,136.862,47.237,136.862Zm.983-19.549a5.717,5.717,0,0,0-4.536,4.738,3.556,3.556,0,0,0,3.553,3.556c2.4,0,4.836-1.208,4.836-2.39C52.073,120.561,49.5,117.313,48.22,117.313Z" transform="translate(81.114 289.814)" fill="#fff"/>
    <path id="Path_74" data-name="Path 74" d="M45.96,100.037l-2.052-1.125-1.125-2.048a13.34,13.34,0,0,0-23.409,0l-1.125,2.048L16.2,100.037a13.344,13.344,0,0,0,0,23.409l2.052,1.125,1.125,2.048a13.34,13.34,0,0,0,23.409,0l1.125-2.048,2.052-1.125a13.34,13.34,0,0,0,0-23.409Zm-5.413,13.535-4.4,2.408a2.1,2.1,0,0,0-.829.829l-2.408,4.408a2.09,2.09,0,0,1-3.661,0l-2.412-4.408a2.075,2.075,0,0,0-.829-.829l-4.4-2.408a2.086,2.086,0,0,1,0-3.661L26,107.5a2.074,2.074,0,0,0,.829-.829l2.412-4.408a2.09,2.09,0,0,1,3.661,0l2.408,4.408a2.1,2.1,0,0,0,.829.829l4.4,2.408a2.086,2.086,0,0,1,0,3.661Z" transform="translate(17.362 245.419)" fill="#fff"/>
    <path id="Path_75" data-name="Path 75" d="M125.1,20.821,123.052,19.7l-1.125-2.052a13.34,13.34,0,0,0-23.409,0L97.391,19.7l-2.048,1.125a13.34,13.34,0,0,0,0,23.409l2.048,1.125,1.125,2.052a13.344,13.344,0,0,0,23.409,0l1.125-2.052L125.1,44.23a13.34,13.34,0,0,0,0-23.409Zm-5.4,13.535-4.4,2.412a2.075,2.075,0,0,0-.829.829L112.056,42a2.09,2.09,0,0,1-3.661,0l-2.412-4.4a2.052,2.052,0,0,0-.829-.829l-4.4-2.412a2.086,2.086,0,0,1,0-3.661l4.4-2.408a2.074,2.074,0,0,0,.829-.829l2.412-4.386a2.086,2.086,0,0,1,3.661,0l2.408,4.4a2.1,2.1,0,0,0,.829.829l4.4,2.408a2.086,2.086,0,0,1,0,3.643Z" transform="translate(235.124 27.445)" fill="#fff"/>
    <path id="Path_76" data-name="Path 76" d="M91.754,105.346c-25.953,0-47.862-12.264-53.444-32.2C34.705,60.283,38.266,46.379,48.338,34A80.7,80.7,0,0,1,89.248,8.392c35.32-9.889,69.932,3.057,77.161,28.868h0c7.233,25.81-15.617,54.858-50.938,64.755a88.077,88.077,0,0,1-23.717,3.331Zm21.6-89.083A78.356,78.356,0,0,0,92.28,19.23,69.436,69.436,0,0,0,57.068,41.1c-7.7,9.476-10.448,19.981-7.859,29.232C54.765,90.167,83.1,99.392,112.436,91.176s48.7-31.021,43.142-50.859C151.381,25.345,134.158,16.262,113.352,16.262Z" transform="translate(93.522 11.948)" fill="#fff"/>
    <path id="Path_77" data-name="Path 77" d="M78.292,107.126a20.153,20.153,0,0,1-19.339-14.7L53.094,71.5A20.142,20.142,0,0,1,67.038,46.708L96.247,38.53a20.1,20.1,0,0,1,24.79,13.941L126.9,73.392a20.119,20.119,0,0,1-13.944,24.8h0l-29.209,8.182a20.285,20.285,0,0,1-5.455.754Zm23.391-58.092a8.928,8.928,0,0,0-2.39.33L70.084,57.546a8.869,8.869,0,0,0-6.137,10.921L69.8,89.392a8.861,8.861,0,0,0,10.921,6.141l29.22-8.182a8.869,8.869,0,0,0,6.141-10.924L110.2,55.494a8.884,8.884,0,0,0-8.52-6.46Zm9.754,43.739Z" transform="translate(135.923 101.94)" fill="#fff"/>
    <path id="Path_78" data-name="Path 78" d="M394.042,176.323c-5.2-9.851-17.411-15.794-28.586-18.487-2.09-11.663-20.963-23.151-43.971-37.106-4.9-2.971-18.66-11.573-18.66-11.573C284.3,97.313,261.6,82.828,229.67,83.5a66.525,66.525,0,1,0-109.949,32.349c-2.3,1.5-7.976,5.522-8.343,5.894-36.817,27.81-84.788,86.018-81.231,110.924-11,10.774-17.069,23.841-15.865,34.791A19.936,19.936,0,0,0,24.576,283.2c6.719,3.721,17.208,2.1,23.886-.409a2.206,2.206,0,0,1,2.292.375A13.858,13.858,0,0,0,60,286.538a14.072,14.072,0,0,0,5.819-1.242c8.628-3.9,10.924-20.693,11.112-30.158,11.044-3.913,20.978-18.037,32.222-34.067,4.611-6.576,9.349-13.28,14.316-19.579,4.34,15.756,8.962,30.7,12.654,42.621,3.414,11.007,6.937,22.389,7.075,24.614-.375,34.949,2.686,91.589,9.412,107.027a358.714,358.714,0,0,0,28.887,48.9,21.931,21.931,0,0,1,3.669,15.783c-2.84,18.007,3.031,30.136,16.131,33.3a52.627,52.627,0,0,0,12.417,1.591,31.553,31.553,0,0,0,17.906-4.952,28.192,28.192,0,0,0,11.96-19.508l.24-1.564c1.321-8.418,2.81-17.958.094-27.153-1.958-6.651-4.99-15.006-8.2-23.856-5.706-15.726-12.174-33.554-13.172-43.664-.96-9.686,2.626-38.367,4.127-49.032a2.877,2.877,0,0,1,2.251-2.172,3.031,3.031,0,0,1,2.949,1.125c1.985,4.22,15.231,32.563,18.041,42.767a142.852,142.852,0,0,1,3.118,24.3,186.115,186.115,0,0,0,5.736,38.513,178.321,178.321,0,0,0,10.482,27.461A31.021,31.021,0,0,0,289.4,452.111a42.234,42.234,0,0,0,33.013-7.015,19.271,19.271,0,0,0,8.411-14.106,39.289,39.289,0,0,0-9.84-28.47,14.631,14.631,0,0,1-4.907-13.806c3.977-18.806,7.8-46.455,7.15-57.653-1.009-17.692-18.214-61.27-33.647-90.865-3.92-7.5-8.707-30.931-13.772-55.729-1.212-5.916-2.45-11.956-3.714-18.007,6.235,3.984,11.949,7.7,17.152,11.089,22.813,14.867,35.4,23.076,45.277,23.076.09,0,.173-.023.263-.026a51.843,51.843,0,0,0,13.232,18.086,14.432,14.432,0,0,0,9.079,2.967,12.95,12.95,0,0,0,11.382-4.558c1.5-2.12,1.564-7.582,3.448-8.955a12.447,12.447,0,0,1,3.917-1.463c8.959-3.328,15.951-6.378,18.4-11.6a20.344,20.344,0,0,0-.2-18.757Zm-112.92-67.264a5.44,5.44,0,0,1-3.41.334,14.965,14.965,0,0,1-7.661-5.98C273.882,105.153,277.558,107.055,281.122,109.059ZM111.967,82.277a55.26,55.26,0,1,1,26.125,33.261,55.26,55.26,0,0,1-26.125-33.261ZM61.179,275.04a2.671,2.671,0,0,1-2.649-.071c-5.819-4.944-8.79-5.533-11.866-3.691-3.7,2.195-13.13,4.025-16.642,2.071a8.647,8.647,0,0,1-4.562-7.128c-.664-6.066,2.915-15.88,12.072-25.064l28.226,13.13C65.865,262.529,63.453,273.641,61.179,275.04ZM99.925,214.6c-9.915,14.147-20.153,28.74-27.761,30.241L40.955,230.337c-2.416-14.451,34.379-64.451,69.35-93.536a335.885,335.885,0,0,0,9.623,51.321,330.555,330.555,0,0,0-20,26.482Zm125.2,187.526c3.151,8.681,6.122,16.882,7.987,23.2a52.492,52.492,0,0,1-.416,22.231l-.248,1.587a17.309,17.309,0,0,1-7.1,11.873c-4.993,3.343-12.38,3.962-21.414,1.774-6.967-1.684-9.536-8.628-7.649-20.607a33.257,33.257,0,0,0-5.541-23.957A347.293,347.293,0,0,1,162.92,371.27c-3.193-7.334-5.74-28.815-7.188-53.069,19.084-6.528,43.356-5.627,57.042,8.253a182.614,182.614,0,0,0-1.429,29.284c1.125,11.513,7.567,29.243,13.787,46.391ZM299.88,290.26c6.91,17.767,11.686,33.493,12.14,41.428.566,9.851-3.193,36.994-6.929,54.674a25.934,25.934,0,0,0,7.541,23.657,27.825,27.825,0,0,1,7.049,19.545,8.133,8.133,0,0,1-3.493,6.156,31.61,31.61,0,0,1-24.22,5.406A19.909,19.909,0,0,1,279,431.9a171.45,171.45,0,0,1-9.416-25.015,177.2,177.2,0,0,1-5.3-36.149,150.227,150.227,0,0,0-3.489-26.429,256.334,256.334,0,0,0-10.909-27.435C261.01,298.761,290.876,289.059,299.88,290.26Zm-20.258-44.883c5.571,10.684,10.981,22.378,15.756,33.737a82.74,82.74,0,0,0-50.8,25.975c-.544-1.178-1.039-2.251-1.444-3.11-.728-1.568-1.6-3.35-1.789-3.616a14.342,14.342,0,0,0-14.507-6,14.169,14.169,0,0,0-11.142,10.8c-.038.169-.071.338-.094.51-.067.473-.589,4.127-1.249,9.356-16.822-11.866-40.186-12.147-59.2-6.445-.563-12.845-.814-25.953-.687-37.759.034-3.2-1.823-9.476-7.574-28.058-9.4-30.357-24.917-80.537-25.78-112.327,2.757-1.951,5.451-3.658,8.107-5.23,1.125.717,2.21,1.463,3.376,2.12a66.518,66.518,0,0,0,90.58-25.368c.927-1.654,1.744-3.346,2.525-5.05a89.014,89.014,0,0,1,14.226.146c9.521,16.507,18.007,57.976,24.887,91.63C270.472,214.506,274.958,236.463,279.622,245.377Zm15.794-77.262c-7.721-5.035-16.469-10.729-26.609-17.092a339.362,339.362,0,0,0-15.239-53.545c.2.053.375.124.589.176,2.862,7.5,9.9,20.258,21.136,22.73a16.791,16.791,0,0,0,3.616.375,19.358,19.358,0,0,0,12.808-5.342c1.7,1.073,18.971,11.911,23.923,14.916,11.952,7.248,39.586,24.01,38.824,29.6l-19.459,29.393c-6.37.521-19.894-8.362-39.6-21.207Zm88.749,22.021c-1.257,2.146-9.99,5.162-13.209,6.34-4.528,1.669-6.4,2.356-7.788,4.018a14.256,14.256,0,0,0-2.6,7.387c-.581,4.1-4.359,2.892-5.556,1.962a41.151,41.151,0,0,1-10.335-14.721l17.535-26.471c10.242,2.352,18.983,7.413,21.89,12.928a8.351,8.351,0,0,1,.049,8.557Z" transform="translate(30.763 0)" fill="#fff"/>
    <path id="Path_79" data-name="Path 79" d="M18.773,69.064A14.826,14.826,0,0,1,3.966,54.253,16.735,16.735,0,0,1,19.752,38.264c8.508,0,15.111,9.221,15.111,17.156C34.856,63.958,26.681,69.064,18.773,69.064Zm.979-19.545a5.714,5.714,0,0,0-4.532,4.734,3.56,3.56,0,0,0,3.553,3.556c2.4,0,4.836-1.208,4.836-2.39C23.6,52.764,21.028,49.519,19.752,49.519Z" transform="translate(2.795 103.279)" fill="#fff"/>
  </g>
</svg>
