<svg xmlns="http://www.w3.org/2000/svg" width="310.476" height="305.82" viewBox="0 0 310.476 305.82">
  <g id="noun_explode_3122389" transform="translate(-1.588 -1.75)">
    <path id="Path_47" data-name="Path 47" d="M36.523,27.737l-1.8-.979-.979-1.8a8.9,8.9,0,0,0-15.624,0l-.979,1.8-1.8.979a8.905,8.905,0,0,0,0,15.624l1.8.979.979,1.8a8.905,8.905,0,0,0,15.624,0l.979-1.8,1.8-.979a8.905,8.905,0,0,0,0-15.624ZM33,36.921l-3.291,1.8a1.555,1.555,0,0,0-.619.619l-1.8,3.291a1.56,1.56,0,0,1-2.735,0l-1.8-3.291a1.555,1.555,0,0,0-.619-.619l-3.291-1.8a1.557,1.557,0,0,1,0-2.735l3.291-1.8a1.587,1.587,0,0,0,.619-.619l1.8-3.293a1.56,1.56,0,0,1,2.735,0l1.8,3.293a1.587,1.587,0,0,0,.619.619L33,34.186a1.557,1.557,0,0,1,0,2.735Z" transform="translate(15.502 26.898)" fill="#a64de9"/>
    <path id="Path_48" data-name="Path 48" d="M123.01,100.415l-1.8-.979-.979-1.8a8.905,8.905,0,0,0-15.624,0l-.979,1.8-1.8.979a8.9,8.9,0,0,0,0,15.624l1.8.979.979,1.8a8.9,8.9,0,0,0,15.624,0l.979-1.8,1.8-.979a8.905,8.905,0,0,0,0-15.624Zm-3.526,9.179-3.291,1.8a1.54,1.54,0,0,0-.619.619l-1.8,3.291a1.56,1.56,0,0,1-2.735,0l-1.8-3.291a1.54,1.54,0,0,0-.619-.619l-3.291-1.8a1.56,1.56,0,0,1,0-2.735l3.291-1.8a1.54,1.54,0,0,0,.619-.619l1.8-3.291a1.56,1.56,0,0,1,2.735,0l1.8,3.291a1.54,1.54,0,0,0,.619.619l3.291,1.8a1.56,1.56,0,0,1,0,2.735Z" transform="translate(140.77 132.178)" fill="#a64de9"/>
    <path id="Path_49" data-name="Path 49" d="M115.971,115.3l-4.162-2.27-2.27-4.162a9.894,9.894,0,0,0-17.362,0L89.9,113.034l-4.162,2.27a9.894,9.894,0,0,0,0,17.362l4.162,2.272,2.272,4.162a9.894,9.894,0,0,0,17.362,0l2.27-4.162,4.162-2.272a9.894,9.894,0,0,0,0-17.362Zm-3.526,10.918-5.387,2.938a2.524,2.524,0,0,0-1.014,1.014l-2.938,5.387a2.546,2.546,0,0,1-4.471,0L95.7,130.173a2.524,2.524,0,0,0-1.014-1.014L89.3,126.222a2.546,2.546,0,0,1,0-4.471l5.387-2.938A2.524,2.524,0,0,0,95.7,117.8l2.938-5.387a2.546,2.546,0,0,1,4.471,0l2.938,5.387a2.524,2.524,0,0,0,1.014,1.014l5.387,2.938a2.546,2.546,0,0,1-.007,4.471Z" transform="translate(116.738 147.706)" fill="#a64de9"/>
    <path id="Path_50" data-name="Path 50" d="M114.719,37.491a3.673,3.673,0,0,1-2.532-6.334l3.058-2.911a3.673,3.673,0,1,1,5.063,5.323l-3.058,2.911a3.673,3.673,0,0,1-2.532,1.011Z" transform="translate(160.845 36.912)" fill="#a64de9"/>
    <path id="Path_51" data-name="Path 51" d="M103.972,57.423a3.673,3.673,0,0,1-2.532-6.332l20.212-19.245a3.673,3.673,0,1,1,5.063,5.318L106.5,56.41a3.656,3.656,0,0,1-2.532,1.014Z" transform="translate(145.281 42.033)" fill="#a64de9"/>
    <path id="Path_52" data-name="Path 52" d="M81.5,58.464a3.673,3.673,0,0,1-2.669-6.195L109.806,19.5a3.674,3.674,0,0,1,5.34,5.046L84.17,57.315A3.673,3.673,0,0,1,81.5,58.464Z" transform="translate(112.73 24.039)" fill="#a64de9"/>
    <path id="Path_53" data-name="Path 53" d="M37.54,146.843a3.673,3.673,0,0,1-2.669-6.195l50.737-53.69A3.674,3.674,0,1,1,90.948,92l-50.737,53.69a3.673,3.673,0,0,1-2.671,1.148Z" transform="translate(49.057 121.755)" fill="#a64de9"/>
    <path id="Path_54" data-name="Path 54" d="M18.163,128.405a3.673,3.673,0,0,1-2.669-6.195l37.3-39.464a3.674,3.674,0,0,1,5.34,5.046l-37.3,39.462a3.673,3.673,0,0,1-2.671,1.151Z" transform="translate(20.99 115.654)" fill="#a64de9"/>
    <path id="Path_55" data-name="Path 55" d="M12.672,113.62A3.673,3.673,0,0,1,10,107.426l4.388-4.652a3.672,3.672,0,1,1,5.338,5.044l-4.388,4.651a3.672,3.672,0,0,1-2.669,1.151Z" transform="translate(13.037 144.662)" fill="#a64de9"/>
    <path id="Path_56" data-name="Path 56" d="M81.741,18.386c-1.912-.286-4.273-2.177-3.989-4.091s0-4.965,3.822-5.289c1.927-.159,6.089,1.687,5.205,5.5a4.292,4.292,0,0,1-5.039,3.881Z" transform="translate(112.588 10.496)" fill="#a64de9"/>
    <path id="Path_57" data-name="Path 57" d="M23.927,52.824c-1.912-.286-4.27-2.177-3.986-4.089s0-4.963,3.822-5.281c1.924-.162,6.087,1.685,5.2,5.494a4.29,4.29,0,0,1-5.036,3.876Z" transform="translate(28.85 60.392)" fill="#a64de9"/>
    <path id="Path_58" data-name="Path 58" d="M58.734,119.7c-2.365-.353-5.284-2.693-4.931-5.056s0-6.138,4.726-6.532c2.382-.2,7.529,2.084,6.432,6.794a5.3,5.3,0,0,1-6.226,4.794Z" transform="translate(77.89 154.048)" fill="#a64de9"/>
    <path id="Path_59" data-name="Path 59" d="M7.583,202.5a3.673,3.673,0,0,1-2.478-6.381L136.553,75.9a6.082,6.082,0,0,1,7.135-.806,6.488,6.488,0,0,1,3.119,5.142l6.8,74.433a3.672,3.672,0,1,1-7.314.671l-6.52-71.365a.49.49,0,0,0-.818-.316L10.061,201.535a3.672,3.672,0,0,1-2.478.962Z" transform="translate(5.668 105.072)" fill="#a64de9"/>
    <path id="Path_60" data-name="Path 60" d="M4.57,213.646a4.113,4.113,0,0,1-3.859-4.821.509.509,0,0,1,.149-.348C16.775,192.949,98.1,102.915,119.121,79.615a.49.49,0,0,0-.3-.793L64.165,69.831a3.674,3.674,0,0,1,1.192-7.25l57.742,9.5a6.3,6.3,0,0,1,4.552,8.979.5.5,0,0,1-.1.157C113.332,96.994,26.623,193.113,7.167,212.566a3.673,3.673,0,0,1-2.6,1.08Z" transform="translate(0.94 88.04)" fill="#a64de9"/>
    <path id="Path_61" data-name="Path 61" d="M29.088,125.266a3.673,3.673,0,0,1-3.673-3.538,3.856,3.856,0,0,1,3.474-3.807l58.435-7.433a.49.49,0,0,0,.345-.761L30.334,24.9a3.672,3.672,0,1,1,6.085-4.114l58.892,87.141a6.1,6.1,0,0,1,.093,6.723,6.449,6.449,0,0,1-4.694,2.816l-61.158,7.774a3.707,3.707,0,0,1-.465.029Z" transform="translate(36.813 25.228)" fill="#a64de9"/>
    <path id="Path_62" data-name="Path 62" d="M105.791,97.659a6.067,6.067,0,0,1-4.162-1.67L31.656,30.163A3.674,3.674,0,1,1,36.69,24.81l67.315,63.342a.49.49,0,0,0,.825-.326l4.51-68.439a3.672,3.672,0,1,1,7.329.49l-4.733,71.818a6.342,6.342,0,0,1-2.715,4.919,6.234,6.234,0,0,1-3.43,1.045Z" transform="translate(44.177 20.581)" fill="#a64de9"/>
    <path id="Path_63" data-name="Path 63" d="M84.645,111.923a6.121,6.121,0,0,1-6.028-5.076L67.094,40.313a3.673,3.673,0,1,1,7.238-1.254l11,63.523a.49.49,0,0,0,.806.284L200.41,2.661a3.673,3.673,0,1,1,4.843,5.524L88.682,110.405A6.121,6.121,0,0,1,84.645,111.923Z" transform="translate(97.104 0)" fill="#a64de9"/>
    <path id="Path_64" data-name="Path 64" d="M69.655,154.744a3.919,3.919,0,0,1-.735-.071A3.673,3.673,0,0,1,66,150.648c1.259-11.64,6.3-58.254,7.509-69.416a6.366,6.366,0,0,1,4.162-5.453,6.075,6.075,0,0,1,6.981,2.328l24.884,36.039a3.673,3.673,0,0,1-6.048,4.162L81.241,86.074a.49.49,0,0,0-.891.225L73.3,151.47A3.673,3.673,0,0,1,69.655,154.744Z" transform="translate(95.558 106.756)" fill="#a64de9"/>
    <path id="Path_65" data-name="Path 65" d="M95.967,125.08a3.673,3.673,0,0,1-3.509-2.593L78.869,78.216a6.425,6.425,0,0,1,1.545-6.569,6.121,6.121,0,0,1,7.238-.869l72.536,41.33a3.674,3.674,0,0,1-3.638,6.383L87.772,79.3a.49.49,0,0,0-.71.568L99.48,120.329a3.673,3.673,0,0,1-3.514,4.75Z" transform="translate(113.761 98.819)" fill="#a64de9"/>
    <path id="Path_66" data-name="Path 66" d="M158.574,136.382a3.658,3.658,0,0,1-2.267-.784L85.466,79.94a6.449,6.449,0,0,1-2.564-5.72A6.1,6.1,0,0,1,87.437,69l58.738-15.374a3.673,3.673,0,1,1,1.861,7.1l-55.4,14.507a.49.49,0,0,0-.179.859L160.7,129.715a3.8,3.8,0,0,1,1.139,4.691A3.673,3.673,0,0,1,158.574,136.382Z" transform="translate(120.046 74.914)" fill="#a64de9"/>
    <path id="Path_67" data-name="Path 67" d="M87.952,126.873a6.121,6.121,0,0,1-4.493-10.284L187.291,4.191a3.673,3.673,0,0,1,5.387,4.983L91.63,118.576a.49.49,0,0,0,.377.823l54.664-1.743a3.675,3.675,0,0,1,.245,7.345l-58.763,1.873Z" transform="translate(118.522 2.003)" fill="#a64de9"/>
  </g>
</svg>
