<svg xmlns="http://www.w3.org/2000/svg" width="243" height="221.781" viewBox="0 0 243 221.781">
  <g id="Galaxy" transform="translate(-2.344 -6.925)">
    <path id="Path_13" data-name="Path 13" d="M75.972,110.665c-7.8,0-14.657-2.42-18.48-6.986C53.832,99.307,53.621,93.593,56.9,88c4.187-7.127,14.13-9.467,19.907-6.723,3.449,1.64,6.3,5.643,3.945,11.959a2.9,2.9,0,1,1-5.442-2.027c1.332-3.579-.3-4.357-1-4.688-3.374-1.607-9.9.151-12.406,4.421-2.052,3.5-2.042,6.527.037,9.009,3.91,4.667,14.959,6.9,26.681,2.565,18.583-6.879,27.523-21.836,26.741-33.058-.691-9.947-8.252-17-21.292-19.852a2.9,2.9,0,0,1,1.245-5.673c15.549,3.4,24.97,12.563,25.841,25.123,1.086,15.6-11.751,31.96-30.52,38.907a42.676,42.676,0,0,1-14.669,2.7Z" transform="translate(50.624 34.564)" fill="#fff"/>
    <path id="Path_14" data-name="Path 14" d="M83.405,122.184A63.462,63.462,0,0,1,66.6,120c-12.99-3.566-22.133-12.27-24.459-23.284C39.754,85.42,44.686,73.8,55.669,64.85c13.426-10.95,35.8-17.164,50.823-7.137A13.9,13.9,0,0,1,112.8,69.155a24.556,24.556,0,0,1-9,18.946,2.9,2.9,0,1,1-3.614-4.545A18.97,18.97,0,0,0,107,69.4a8.217,8.217,0,0,0-3.734-6.856c-12.253-8.17-31.958-2.954-43.94,6.808C50.1,76.884,45.905,86.419,47.82,95.517c1.868,8.848,9.464,15.907,20.313,18.884,23.741,6.515,48.14-5.42,48.392-5.542a2.9,2.9,0,0,1,2.6,5.2,87.739,87.739,0,0,1-35.715,8.13Z" transform="translate(38.427 42.793)" fill="#fff"/>
    <path id="Path_15" data-name="Path 15" d="M89.222,99.215a2.9,2.9,0,0,1-1.742-5.226c11.986-9.014,19.73-19.322,23.675-31.517a2.9,2.9,0,1,1,5.525,1.789c-4.323,13.368-12.735,24.61-25.714,34.372a2.89,2.89,0,0,1-1.744.583Z" transform="translate(80.316 50.093)" fill="#fff"/>
    <path id="Path_16" data-name="Path 16" d="M36.256,77.851a2.9,2.9,0,0,1-2.209-4.787C50.95,53.233,81.332,41.77,99.111,43.509a2.9,2.9,0,1,1-.563,5.778c-15.981-1.549-44.584,9.365-60.082,27.547a2.9,2.9,0,0,1-2.211,1.018Z" transform="translate(30.758 34.069)" fill="#fff"/>
    <path id="Path_17" data-name="Path 17" d="M59.836,136a2.9,2.9,0,0,1-1.125-.228c-14.587-6.138-25.164-16.724-29.809-29.809-4.56-12.882-3.13-27.332,4.03-40.692a2.9,2.9,0,1,1,5.118,2.743c-6.388,11.9-7.683,24.689-3.678,36,4.078,11.523,13.521,20.905,26.583,26.393a2.9,2.9,0,0,1-1.128,5.581Z" transform="translate(24.143 53.157)" fill="#fff"/>
    <path id="Path_18" data-name="Path 18" d="M72.47,117.942a78.669,78.669,0,0,1-20.764-2.65,2.9,2.9,0,1,1,1.531-5.6c24.81,6.775,57.153-.627,88.739-20.315a2.9,2.9,0,0,1,3.072,4.928C120.217,109.784,94.781,117.942,72.47,117.942Z" transform="translate(45.869 76.738)" fill="#fff"/>
    <path id="Path_19" data-name="Path 19" d="M143.219,82.417h-.072a2.9,2.9,0,0,1-2.834-2.973c.314-12.872-4.259-23.8-13.24-31.594-14.21-12.344-38.024-16.486-67.052-11.659a2.9,2.9,0,1,1-.952-5.728c30.766-5.121,56.27-.5,71.822,13.008,10.325,8.97,15.6,21.459,15.238,36.118a2.9,2.9,0,0,1-2.909,2.828Z" transform="translate(52.549 20.121)" fill="#fff"/>
    <path id="Path_20" data-name="Path 20" d="M10.4,97.256A2.9,2.9,0,0,1,7.835,93C24.96,60.4,66.6,36.344,90.067,31.52a2.9,2.9,0,1,1,1.161,5.687C68.9,41.8,29.267,64.683,12.969,95.7A2.9,2.9,0,0,1,10.4,97.256Z" transform="translate(6.567 22.941)" fill="#fff"/>
    <path id="Path_21" data-name="Path 21" d="M11.167,133.1a2.9,2.9,0,0,1-2.346-1.19c-11.928-16.324-7.669-47.546.635-62.745a2.9,2.9,0,0,1,5.1,2.78C7.166,85.474,3.086,114.219,13.51,128.485a2.9,2.9,0,0,1-2.342,4.617Z" transform="translate(0.901 56.879)" fill="#fff"/>
    <path id="Path_22" data-name="Path 22" d="M106.484,125.062a2.9,2.9,0,0,1-1.729-5.238c15.936-11.792,38.067-41.443,37.359-70.435a2.9,2.9,0,0,1,5.807-.139c.747,31.072-22.775,62.7-39.718,75.242A2.89,2.89,0,0,1,106.484,125.062Z" transform="translate(96.466 36.95)" fill="#fff"/>
    <path id="Path_23" data-name="Path 23" d="M129.48,59.534h-.147a2.9,2.9,0,0,1-2.754-3.045,53.324,53.324,0,0,0-5.892-25.015,2.9,2.9,0,0,1,5.073-2.826,58.981,58.981,0,0,1,6.618,28.131A2.9,2.9,0,0,1,129.48,59.534Z" transform="translate(112.13 18.93)" fill="#fff"/>
    <path id="Path_24" data-name="Path 24" d="M42.729,35.7A13.281,13.281,0,1,1,56.009,22.42,13.281,13.281,0,0,1,42.729,35.7Zm0-20.754A7.474,7.474,0,1,0,50.2,22.42,7.474,7.474,0,0,0,42.729,14.946Z" transform="translate(27.104 2.072)" fill="#fff"/>
    <path id="Path_25" data-name="Path 25" d="M113.688,74.935a9,9,0,1,1,9-9,9,9,0,0,1-9,9Zm0-12.195a3.192,3.192,0,1,0,3.192,3.19,3.192,3.192,0,0,0-3.192-3.19Z" transform="translate(97.505 46.795)" fill="#fff"/>
    <path id="Path_26" data-name="Path 26" d="M75.751,50.713a9,9,0,1,1,9-9,9,9,0,0,1-9,9Zm0-12.195a3.194,3.194,0,1,0,3.194,3.194,3.194,3.194,0,0,0-3.194-3.194Z" transform="translate(62.007 24.128)" fill="#fff"/>
    <path id="Path_27" data-name="Path 27" d="M20.722,95.754a9,9,0,1,1,9-9A9,9,0,0,1,20.722,95.754Zm0-12.195a3.194,3.194,0,1,0,3.194,3.194,3.194,3.194,0,0,0-3.194-3.194Z" transform="translate(10.517 66.272)" fill="#fff"/>
    <path id="Path_28" data-name="Path 28" d="M107.722,42.013a10.646,10.646,0,1,1,10.646-10.646A10.646,10.646,0,0,1,107.722,42.013Zm0-15.485a4.839,4.839,0,1,0,4.839,4.839A4.839,4.839,0,0,0,107.722,26.528Z" transform="translate(90.382 12.909)" fill="#fff"/>
    <path id="Path_29" data-name="Path 29" d="M83.849,129.68a8.461,8.461,0,1,1,8.461-8.461A8.461,8.461,0,0,1,83.849,129.68Zm0-11.115a1.1,1.1,0,1,0,0-.008Z" transform="translate(70.089 99.026)" fill="#fff"/>
    <path id="Path_30" data-name="Path 30" d="M55.617,110.222a11.69,11.69,0,1,1,11.69-11.69A11.69,11.69,0,0,1,55.617,110.222Zm0-17.572A5.883,5.883,0,1,0,61.5,98.533a5.883,5.883,0,0,0-5.883-5.883Z" transform="translate(40.652 74.778)" fill="#fff"/>
    <path id="Path_31" data-name="Path 31" d="M27.266,28.265l-1.372-.751-.749-1.37a7.015,7.015,0,0,0-12.311,0l-.751,1.37-1.37.751a7.017,7.017,0,0,0,0,12.311l1.37.749.751,1.372a7.015,7.015,0,0,0,12.311,0l.749-1.37,1.372-.749a7.017,7.017,0,0,0,0-12.311Zm-2.791,7.21-2.553,1.4a1.231,1.231,0,0,0-.48.48l-1.4,2.553a1.21,1.21,0,0,1-2.129,0l-1.4-2.553a1.223,1.223,0,0,0-.482-.48l-2.545-1.4a1.21,1.21,0,0,1,0-2.129l2.553-1.4a1.21,1.21,0,0,0,.482-.48l1.4-2.553a1.21,1.21,0,0,1,2.129,0l1.4,2.553a1.218,1.218,0,0,0,.48.48l2.553,1.4a1.208,1.208,0,0,1-.008,2.129Z" transform="translate(6.159 14.567)" fill="#fff"/>
    <path id="Path_32" data-name="Path 32" d="M134.87,92.208l-1.372-.749-.757-1.372a7.017,7.017,0,0,0-12.311,0l-.751,1.372-1.37.749a7.015,7.015,0,0,0,0,12.311l1.37.751.751,1.37a7.017,7.017,0,0,0,12.311,0l.749-1.37,1.372-.751a7.017,7.017,0,0,0,0-12.311Zm-2.787,7.216-2.553,1.4a1.21,1.21,0,0,0-.48.482l-1.4,2.553a1.21,1.21,0,0,1-2.129,0l-1.4-2.553a1.209,1.209,0,0,0-.48-.482l-2.553-1.4a1.21,1.21,0,0,1,0-2.129l2.553-1.4a1.206,1.206,0,0,0,.48-.48l1.4-2.553a1.21,1.21,0,0,1,2.129,0l1.4,2.553a1.206,1.206,0,0,0,.48.48l2.553,1.4a1.21,1.21,0,0,1-.008,2.129Z" transform="translate(106.833 74.399)" fill="#fff"/>
    <path id="Path_33" data-name="Path 33" d="M41.829,114.227l-1.372-.751-.749-1.37a7.017,7.017,0,0,0-12.311,0l-.751,1.37-1.37.751a7.015,7.015,0,0,0,0,12.311l1.37.749.751,1.372a7.017,7.017,0,0,0,12.311,0l.749-1.372,1.372-.749a7.017,7.017,0,0,0,0-12.311Zm-2.787,7.216-2.553,1.4a1.217,1.217,0,0,0-.48.48l-1.4,2.553a1.21,1.21,0,0,1-2.129,0l-1.4-2.553a1.206,1.206,0,0,0-.48-.48l-2.553-1.4a1.21,1.21,0,0,1,0-2.129l2.553-1.4a1.21,1.21,0,0,0,.48-.482l1.4-2.553a1.21,1.21,0,0,1,2.129,0l1.4,2.553a1.223,1.223,0,0,0,.48.482l2.553,1.4a1.21,1.21,0,0,1,0,2.129Z" transform="translate(19.783 95.002)" fill="#fff"/>
    <path id="Path_34" data-name="Path 34" d="M128.962,111.662l-3.6-1.971-1.971-3.6a7.96,7.96,0,0,0-13.964,0l-1.971,3.6-3.6,1.971a7.96,7.96,0,0,0,0,13.964l3.6,1.971,1.971,3.6a7.958,7.958,0,0,0,13.964,0l1.971-3.6,3.6-1.971a7.958,7.958,0,0,0,0-13.964Zm-2.785,8.869-4.543,2.483a2.166,2.166,0,0,0-.856.856l-2.483,4.543a2.151,2.151,0,0,1-3.775,0l-2.483-4.543a2.152,2.152,0,0,0-.856-.856l-4.541-2.483a2.151,2.151,0,0,1,0-3.775l4.541-2.483a2.141,2.141,0,0,0,.856-.856l2.483-4.541a2.151,2.151,0,0,1,3.775,0l2.483,4.541a2.153,2.153,0,0,0,.856.856l4.543,2.483a2.152,2.152,0,0,1,0,3.775Z" transform="translate(92.851 88.914)" fill="#fff"/>
    <path id="Path_35" data-name="Path 35" d="M101.149,13.58l-1.872-1.024-1.032-1.872a7.228,7.228,0,0,0-12.683,0l-1.024,1.872-1.87,1.024a7.228,7.228,0,0,0,0,12.681l1.872,1.024,1.024,1.872a7.228,7.228,0,0,0,12.683,0l1.022-1.872,1.872-1.024a7.226,7.226,0,0,0,0-12.681Zm-2.787,7.586-3,1.64a1.425,1.425,0,0,0-.563.565l-1.64,3a1.421,1.421,0,0,1-2.493,0l-1.64-3a1.43,1.43,0,0,0-.565-.565l-2.991-1.64a1.419,1.419,0,0,1,0-2.482l3-1.64a1.43,1.43,0,0,0,.565-.565l1.64-3a1.421,1.421,0,0,1,2.493,0l1.64,3a1.425,1.425,0,0,0,.563.565l2.993,1.64a1.421,1.421,0,0,1,0,2.482Z" transform="translate(73.386 0)" fill="#fff"/>
  </g>
</svg>
