<svg xmlns="http://www.w3.org/2000/svg" width="68.236" height="73.086" viewBox="0 0 68.236 73.086">
  <path id="Icon_feather-github" data-name="Icon feather-github" d="M26.3,61.473C9.658,66.466,9.658,53.15,3,51.485M49.607,71.46V58.576a11.219,11.219,0,0,0-3.129-8.689c10.453-1.165,21.439-5.127,21.439-23.3A18.108,18.108,0,0,0,62.926,14.1a16.878,16.878,0,0,0-.3-12.553S58.7.384,49.607,6.476a44.543,44.543,0,0,0-23.3,0C17.215.384,13.287,1.549,13.287,1.549a16.878,16.878,0,0,0-.3,12.551A18.11,18.11,0,0,0,7.994,26.684c0,18.044,10.986,22.005,21.439,23.3A11.219,11.219,0,0,0,26.3,58.576V71.46" transform="translate(-1.181 0.126)" fill="none" stroke="#a64de9" stroke-linecap="round" stroke-linejoin="round" stroke-width="3"/>
</svg>
