<svg xmlns="http://www.w3.org/2000/svg" width="541.03" height="541.03" viewBox="0 0 541.03 541.03">
  <g id="noun_Moon_3122376" transform="translate(-1 -1)">
    <path id="Path_80" data-name="Path 80" d="M271.515,1C122.114,1,1,122.114,1,271.515S122.114,542.03,271.515,542.03,542.03,420.917,542.03,271.515C541.86,122.184,420.846,1.17,271.515,1ZM440.458,77.255a259.876,259.876,0,0,1,36.382,38.864,27.67,27.67,0,0,1-23.616-4.547C440.128,101.906,436.031,91.1,440.458,77.255ZM13.882,271.515c0-2.147.112-4.251.163-6.376,9.554,6.625,9.382,12.68,8.1,18.769a16.476,16.476,0,0,1-7.3,9.2C14.259,285.977,13.882,278.793,13.882,271.515ZM185.667,514.369c1.061-6.638,5.986-16.278,29.018-16.278,14.96,0,38.9,15.99,45.03,30.783a255.826,255.826,0,0,1-74.048-14.5Zm226.258-27a9.782,9.782,0,0,1-3.293-4.221,8.365,8.365,0,0,1,.455-6.87,19.348,19.348,0,0,1,14.105-9.537,20.611,20.611,0,0,1,13.354,2.418A260.257,260.257,0,0,1,411.925,487.369Zm34.647-27.052a33.458,33.458,0,0,0-25.424-6.282,32.148,32.148,0,0,0-23.573,16.471,21.181,21.181,0,0,0-.992,17.176,21.9,21.9,0,0,0,4.015,6.643,255.885,255.885,0,0,1-127.4,34.781c-5.423-21.9-36.648-43.909-58.5-43.909-22.715,0-37.185,8.833-41.1,24.527a258.351,258.351,0,0,1-157.2-202.568c6.183-3.109,16.033-9.644,18.343-20.611,3.293-15.643-2.885-26.871-19.945-35.97A257.354,257.354,0,0,1,429.934,68.547c-8.777,21.289-3.534,39.229,15.668,53.377a39.251,39.251,0,0,0,23.792,7.892,51.754,51.754,0,0,0,15.458-2.576A257.118,257.118,0,0,1,446.534,460.3Z" fill="#fff"/>
    <path id="Path_81" data-name="Path 81" d="M106.52,82.1c-29.628,0-49.526,17.39-49.526,43.27,0,28.7,24.295,35.485,47.8,42.037a49.527,49.527,0,0,0,13.375,1.949,35.3,35.3,0,0,0,21.761-7.081c10.241-7.776,16.119-21.229,16.119-36.906C156.045,99.469,136.139,82.1,106.52,82.1Zm25.617,69.913a26.558,26.558,0,0,1-23.887,3.006c-24.51-6.84-38.374-11.594-38.374-29.628C69.876,102.964,89.628,95,106.52,95s36.644,7.961,36.644,30.388a32.69,32.69,0,0,1-11.027,26.6Z" transform="translate(184.438 267.135)" fill="#fff"/>
    <path id="Path_82" data-name="Path 82" d="M136.766,49.177c0-22.363-20.284-38.593-48.233-38.593-30.916,0-47.6,21.212-47.6,41.166,0,29.593,31.775,29.593,45.343,29.593C118.367,81.343,136.766,69.621,136.766,49.177ZM86.3,68.461c-29.98,0-32.462-7.905-32.462-16.712,0-13.71,12.169-28.284,34.716-28.284,20.817,0,35.352,10.576,35.352,25.712C123.884,66.581,97.584,68.461,86.3,68.461Z" transform="translate(131.541 31.569)" fill="#fff"/>
    <path id="Path_83" data-name="Path 83" d="M118.567,40.811c-9.61,0-27.481,0-27.481,21.229,0,15.973,12.152,33.771,29.589,33.771,15.437,0,25.411-11.8,25.411-30.057C146.069,49.9,136.043,40.811,118.567,40.811Zm2.091,42.119c-9.258,0-16.708-11.43-16.708-20.89,0-6.2.709-8.347,14.6-8.347,12.847,0,14.621,5.788,14.621,12.044.017,6.419-1.61,17.193-12.512,17.193Z" transform="translate(296.733 131.133)" fill="#fff"/>
    <path id="Path_84" data-name="Path 84" d="M58.761,58.058c-18.279,0-30.555,13.182-30.555,32.805,0,20.542,10.58,32.805,28.3,32.805,19.237,0,32.166-12.538,32.166-31.2C88.673,71.889,76.65,58.058,58.761,58.058ZM56.52,110.787c-4.217,0-15.419,0-15.419-19.924,0-5.99,1.718-19.924,17.674-19.924,12.555,0,17.03,11.121,17.03,21.534C75.791,104.114,68.762,110.787,56.52,110.787Z" transform="translate(89.614 187.943)" fill="#fff"/>
    <path id="Path_85" data-name="Path 85" d="M77,85.524c.923-.047,1.808-.09,2.632-.09,10.507,0,18.657-12.1,18.657-22.513,0-9.781-5.805-20.705-22.109-22.015a20.25,20.25,0,0,0-17.463,7.059,26.875,26.875,0,0,0-5.823,21.9A18.94,18.94,0,0,0,73.552,85.627C74.827,85.627,76,85.571,77,85.524ZM65.441,66.906A14.385,14.385,0,0,1,68.494,56.36a7.9,7.9,0,0,1,6.647-2.615c7,.563,10.258,3.478,10.258,9.176,0,4.251-3.581,9.631-5.775,9.631-1.018,0-2.108.047-3.242.1C68.807,73.012,66.729,72.5,65.441,66.906Z" transform="translate(169.576 131.115)" fill="#fff"/>
    <path id="Path_86" data-name="Path 86" d="M97.694,14.946c-.515,0-1,.021-1.477.06-6.011.5-16.317,3.624-17.858,18.863-.03.262-.047.52-.082.751-1.64,10.979,7.669,19.906,17.39,21.358a22.013,22.013,0,0,0,3.173.236,19.971,19.971,0,0,0,19.546-16.428,19.155,19.155,0,0,0-3.663-16.57,22.556,22.556,0,0,0-17.03-8.27Zm8.158,21.925c-1.159,4.977-4.169,6.441-7,6.441a8.375,8.375,0,0,1-1.288-.1c-3.139-.468-7.016-3.573-6.548-6.711s0-8.158,6.278-8.682h.4c3.3.009,9.541,3.04,8.146,9.052Z" transform="translate(253.919 45.937)" fill="#fff"/>
    <path id="Path_87" data-name="Path 87" d="M95.95,60.378c-.511,0-1,.021-1.473.064-6.011.5-16.317,3.62-17.863,18.863-.026.262-.047.515-.082.751C74.9,91.036,84.2,99.963,93.924,101.41a21.438,21.438,0,0,0,3.177.24,19.967,19.967,0,0,0,19.542-16.433,19.164,19.164,0,0,0-3.658-16.566A22.577,22.577,0,0,0,95.95,60.378ZM104.109,82.3c-1.155,4.981-4.169,6.467-6.995,6.467a8.394,8.394,0,0,1-1.288-.1c-3.139-.468-7.016-3.573-6.548-6.716s0-8.158,6.278-8.678h.4c3.3-.017,9.537,3.019,8.141,9.026Z" transform="translate(248.179 195.585)" fill="#fff"/>
    <path id="Path_88" data-name="Path 88" d="M60.291,51.414c0-11.662-12.761-21.658-23.213-21.658a20.13,20.13,0,0,0-20.1,20.108c0,11.061,12.345,23.213,23.591,23.213C52.364,73.064,60.291,61.861,60.291,51.414Zm-30.435-1.55a7.235,7.235,0,0,1,7.222-7.227c4.345,0,10.331,5.088,10.331,8.777,0,4.431-3.392,8.781-6.844,8.781A14.024,14.024,0,0,1,29.856,49.851Z" transform="translate(52.617 94.719)" fill="#fff"/>
    <path id="Path_89" data-name="Path 89" d="M131.748,68.681A27.447,27.447,0,0,0,104.332,96.1c0,15.029,17.455,32.2,32.767,32.2,16.055,0,26.841-15.411,26.841-29.8C163.94,82.713,145.94,68.681,131.748,68.681Zm5.35,46.726c-8.158,0-19.885-11.37-19.885-19.323A14.552,14.552,0,0,1,131.749,81.55c8.485,0,19.323,9.49,19.323,16.922C151.058,106.472,145.09,115.407,137.1,115.407Z" transform="translate(340.364 222.934)" fill="#fff"/>
    <path id="Path_90" data-name="Path 90" d="M46.847,90.754c-15.7,0-25.849,9.73-25.849,24.789a24.475,24.475,0,0,0,25.849,25.819A24.475,24.475,0,0,0,72.7,115.543C72.7,100.484,62.554,90.754,46.847,90.754Zm0,37.726A11.684,11.684,0,0,1,33.88,115.543c0-7.9,4.363-11.907,12.968-11.907s12.972,4.006,12.972,11.907A11.684,11.684,0,0,1,46.847,128.48Z" transform="translate(65.742 295.64)" fill="#fff"/>
  </g>
</svg>
