<svg id="Backgroun_Img" data-name="Backgroun Img" xmlns="http://www.w3.org/2000/svg" width="1920" height="1080" viewBox="0 0 1920 1080">
  <rect id="Rectangle_16" data-name="Rectangle 16" width="1920" height="1080" fill="#fff"/>
  <g id="Kyle_Larsen" data-name="Kyle Larsen" transform="translate(433 787)">
    <text id="Kyle_Larsen-2" data-name="Kyle Larsen" transform="translate(107 272)" fill="#a64de9" font-size="57" font-family="SegoeUI, Segoe UI"><tspan x="0" y="0">Kyle Larsen</tspan></text>
    <rect id="Rectangle_6" data-name="Rectangle 6" width="167" height="14" rx="7" transform="translate(224 279)" fill="#a64de9"/>
  </g>
  <g id="StarSm" transform="translate(496.089 -315.51) rotate(45)">
    <rect id="Rectangle_2" data-name="Rectangle 2" width="15" height="65" rx="7" transform="translate(789 243)" fill="#a64de9"/>
    <rect id="Rectangle_3" data-name="Rectangle 3" width="15" height="62" rx="7" transform="translate(789 328)" fill="#a64de9"/>
    <rect id="Rectangle_4" data-name="Rectangle 4" width="15" height="62" rx="7" transform="translate(868.5 310.5) rotate(90)" fill="#a64de9"/>
    <rect id="Rectangle_5" data-name="Rectangle 5" width="15" height="62" rx="7" transform="translate(786.5 310.5) rotate(90)" fill="#a64de9"/>
  </g>
  <g id="StarLG" transform="translate(546.847 -736.931) rotate(45)">
    <rect id="Rectangle_2-2" data-name="Rectangle 2" width="14" height="83.562" rx="7" transform="translate(1163 148.375)" fill="#a64de9"/>
    <rect id="Rectangle_3-2" data-name="Rectangle 3" width="14" height="79.705" rx="7" transform="translate(1163 255.526)" fill="#a64de9"/>
    <rect id="Rectangle_4-2" data-name="Rectangle 4" width="14" height="79.705" rx="7" transform="translate(1264.241 237) rotate(90)" fill="#a64de9"/>
    <rect id="Rectangle_5-2" data-name="Rectangle 5" width="14" height="79.705" rx="7" transform="translate(1156.704 237) rotate(90)" fill="#a64de9"/>
  </g>
  <path id="Saturn" d="M1225.36,2196.643a7.184,7.184,0,0,1-5.142,9,7.718,7.718,0,0,1-9.506-4.87,238.744,238.744,0,0,1-11.058-71.828c0-69.1,29.567-131.651,77.371-176.932s113.843-73.288,186.788-73.288a275.218,275.218,0,0,1,115.856,25.292c68.29-49.8,133.6-87.8,185.637-109.247,54.817-22.59,96.263-26.789,113.487-7.521,19.177,21.452,2.795,66.639-39.194,122.356-30.36,40.287-74.188,86.784-127.374,134.048a239.212,239.212,0,0,1,7.031,149.207,7.685,7.685,0,0,1-9.327,5.154,7.2,7.2,0,0,1-5.44-8.835,223.543,223.543,0,0,0,6.15-29.771,226.358,226.358,0,0,0-10.671-104.992q-20.359,17.66-42.334,35.3l-.646.519c-19.117,15.315-38.2,29.823-57.043,43.42-19.658,14.188-38.953,27.331-57.644,39.314a7.912,7.912,0,0,1-10.612-1.954,7.009,7.009,0,0,1,2.062-10.052c18.625-11.94,37.683-24.914,56.927-38.8,18.836-13.6,37.942-28.125,57.091-43.486l.052-.042q24.177-19.394,46.416-38.878-3.453-8-7.5-15.692c-12.673,11.237-26.049,22.529-40.035,33.747-14.467,11.6-28.911,22.589-43.165,32.876-14.7,10.607-29.13,20.438-43.123,29.409a4.945,4.945,0,0,1-6.632-1.221,4.38,4.38,0,0,1,1.289-6.282c13.951-8.944,28.238-18.67,42.675-29.091,14.119-10.19,28.438-21.081,42.79-32.592,14.582-11.7,28.489-23.466,41.613-35.162a238.113,238.113,0,0,0-42.369-53.485c-45.034-42.656-107.247-69.041-175.968-69.041a263.31,263.31,0,0,0-49.793,4.724l23.784,8.807a4.45,4.45,0,0,1,2.709,5.858,4.863,4.863,0,0,1-6.184,2.566l-36.592-13.55a256.174,256.174,0,0,0-34.159,11.506l102.413,37.922a4.45,4.45,0,0,1,2.709,5.858,4.863,4.863,0,0,1-6.184,2.566l-110.808-41.031a252.121,252.121,0,0,0-26.142,14.474l102.65,38.01a4.449,4.449,0,0,1,2.709,5.857,4.863,4.863,0,0,1-6.184,2.567L1316.2,1939.167a247.513,247.513,0,0,0-20.965,16.392l155.653,57.636a4.451,4.451,0,0,1,2.709,5.858,4.863,4.863,0,0,1-6.184,2.566l-159.765-59.16a242.137,242.137,0,0,0-16.994,17.862l122.342,45.3a4.45,4.45,0,0,1,2.709,5.858,4.863,4.863,0,0,1-6.184,2.566l-125-46.286q-7.288,9.217-13.626,19.109l169.46,62.749a4.45,4.45,0,0,1,2.709,5.858,4.862,4.862,0,0,1-6.184,2.566l-170.834-63.258q-5.77,9.855-10.555,20.267l224.624,83.813a4.45,4.45,0,0,1,2.709,5.857,4.862,4.862,0,0,1-6.184,2.566l-224.784-83.874a225.179,225.179,0,0,0-9.617,28.735l112,41.79a4.449,4.449,0,0,1,2.709,5.857,4.863,4.863,0,0,1-6.184,2.566l-110.66-41.291a224.008,224.008,0,0,0-4.634,32.749l49.785,18.576a4.449,4.449,0,0,1,2.709,5.857,4.863,4.863,0,0,1-6.184,2.566l-46.747-17.442q-.068,2.777-.068,5.569a223.56,223.56,0,0,0,10.4,67.694Zm249.361,254.663.12-.085c13.512-12.3,35.276-13.105,54.71-9.7,18.782,3.287,36.084,10.888,40.948,15.551l.015-.014.09.113c6.429,6.34,5.735,17.021-.584,29.164-5.22,10.032-14.453,21.7-26.461,32.628l-.092.087,0,0c-11.961,10.868-24.616,19.11-35.418,23.653-13.058,5.492-24.344,5.726-30.76-.6-4.729-4.663-12.148-21.461-14.88-39.487-2.8-18.478-1.089-38.981,12.328-51.29Zm10.81,10.24.012.01-.12.086c-9.216,8.386-10.115,24.25-7.89,38.93,2.3,15.18,7.576,28.367,10.755,31.5,1.492,1.471,6.581.381,13.6-2.572,9.25-3.89,20.342-11.185,31.085-20.961l.093-.087h0c10.675-9.73,18.782-19.915,23.261-28.523,3.315-6.37,4.688-11.062,3.371-12.635l-.007.007-.09-.114c-3.189-3.144-16.892-8.675-32.8-11.459C1511.469,2453.049,1494.772,2453.254,1485.531,2461.546ZM1003.462,2560.8q-1.089,1.028-2.207,2.047l.013.012-.121.086c-13.038,11.864-26.828,20.854-38.584,25.8-13.986,5.882-26.027,6.177-32.808-.509-5.094-5.023-13.1-23.206-16.064-42.765-3.034-20.011-1.2-42.2,13.266-55.462l-.014-.013.12-.085c7.868-7.16,18.313-10.72,29.614-11.887,11.284-1.165,23.489.081,34.639,2.443,2.193-16.048,8.122-30.8,19.754-41.384,20.8-18.924,54.9-20.061,85.5-14.707,30.073,5.263,57.461,17.183,64.715,24.335,8.963,8.837,7.611,24.467-1.82,42.592-8.317,15.982-23.078,34.624-42.317,52.151l.013.012-.12.085c-19.27,17.536-39.583,30.8-56.845,38.056-19.492,8.2-36.023,8.856-44.973.033C1011.835,2578.3,1007.532,2570.779,1003.462,2560.8ZM990.3,2495.091c-10.329-2.381-21.746-3.745-32.008-2.686-8.1.837-15.385,3.195-20.539,7.827l.012.01-.12.085c-10.266,9.342-11.286,26.889-8.828,43.1,2.533,16.714,8.395,31.285,11.939,34.78,1.858,1.831,7.7.68,15.649-2.662,10.146-4.268,22.294-12.246,34.053-22.927l-.013-.011.121-.086q2.224-2.023,4.3-4.059,1.494-1.462,3.135-3.17a187.64,187.64,0,0,1-5.878-25.886A154.47,154.47,0,0,1,990.3,2495.091Zm103.518-56.5c-26.549-4.646-55.663-4.1-72.164,10.913s-18.239,42.549-14.4,67.867c3.914,25.819,13.256,48.613,18.969,54.246,4.026,3.969,14.361,2.455,27.814-3.2,15.652-6.583,34.322-18.829,52.314-35.183l-.013-.012.12-.086c18-16.384,31.71-33.615,39.315-48.228,6.505-12.5,8.523-22.212,4.51-26.168C1144.559,2453.091,1120.885,2443.326,1093.817,2438.587Zm514.646-519.038c49.94-35.712,96.124-64.628,131.9-80.751,34.482-15.542,60.173-19.285,71.846-6.226,14.044,15.71,1.781,49.155-29.4,90.53-20.62,27.362-49.553,58.559-84.5,90.543q4.192,7.634,7.839,15.567c50.469-45.24,92.038-89.535,121.013-127.983,37.731-50.066,54.035-88.9,39.972-104.631-12.3-13.757-47.418-8.481-95.731,11.428-49.555,20.422-111.613,56.332-176.89,103.433Q1601.629,1915.3,1608.463,1919.549Zm85.115,85.857c33.666-30.974,61.531-61.1,81.459-87.543,28.518-37.842,40.733-67.316,29.884-79.451-8.345-9.336-30.134-5.119-60.487,8.562-34.605,15.6-79.252,43.458-127.672,77.944a262.393,262.393,0,0,1,33.839,27.1A253.114,253.114,0,0,1,1693.577,2005.406Zm-165.569,123.817a4.921,4.921,0,0,1,6.558,1.469,4.378,4.378,0,0,1-1.551,6.212q-12.281,7.192-23.526,13.171-11.571,6.155-22.339,11.239a4.906,4.906,0,0,1-6.408-2.036,4.419,4.419,0,0,1,2.149-6.07q10.644-5.025,21.928-11.026Q1516.33,2136.058,1528.008,2129.223Zm-30.353,53.926a7.874,7.874,0,0,1,10.492,2.35,7,7,0,0,1-2.481,9.939q-16.484,9.652-31.461,17.617-15.491,8.24-29.884,15.035a7.849,7.849,0,0,1-10.253-3.257,7.071,7.071,0,0,1,3.438-9.712q14.2-6.7,29.227-14.7Q1482.143,2192.229,1497.655,2183.149ZM351.142,2588.006a7.941,7.941,0,0,1-10.791.424,6.969,6.969,0,0,1-.448-10.221c31.436-32.47,538.291-410.1,567.045-433.392,26.142-21.174,50.047-37.019,69.527-44.69,22.771-8.965,37.966-11.543,48.44-8.533,24.422,4.049,44.377,35.245,64.33,66.446,8.405,13.144,16.811,26.287,25.288,36.987,7.046-4.726,12.949-7.988,18.093-9.923,7.99-3,14.46-3.048,20.376-.476,7.894,3.432,11.279,12.962,15.369,24.478,3.456,9.732,7.536,21.219,14.6,29.309,6.734,7.718,42.966-18.885,79.25-45.527,28.705-21.077,57.441-42.176,76.742-47.789a12.639,12.639,0,0,1,8.525.084c23.408,4.367,47.252,62.616,71.094,120.872,10.357,25.305,20.714,50.61,30.6,70.922,8.007-5.878,16.055-11.84,24.044-17.758,18.842-13.956,37.362-27.675,54-39.3,24.284-16.968,36.632-17.657,45.484-6.291,5.206,6.685,7.594,17.615,10.76,32.106l.207.947c2.473,11.312,7.187,17.934,13.633,21.257a248.032,248.032,0,0,0,42.671-32.462,239.449,239.449,0,0,0,35.25-42.087,7.892,7.892,0,0,1,10.522-2.322,7.018,7.018,0,0,1,2.451,9.967,254.011,254.011,0,0,1-37.4,44.635,262.357,262.357,0,0,1-28.613,23.542c13.294-2.8,29.074-8.928,45.89-15.463,5.734-2.229,2.28-.909,6.8-2.654,23.357-9.02,35.6-1.084,40.469,17.323l81.3,164.448c35.525-27.11,74.441-59.611,109.655-89.021l10.916-9.114a7.947,7.947,0,0,1,10.791.651,6.979,6.979,0,0,1-.688,10.222l-10.916,9.114c-85.7,71.575-192.656,160.9-231.628,151.548-16.62-3.99-22.643-20.775-13.356-55.491,12.039-45,26.252-99.052,30.166-138.58,3.3-33.369-.7-55.505-20.968-47.679-9.067,3.5-5.485,2.109-6.741,2.6-18.044,7.013-34.939,13.579-49.93,16.52-27.528,5.4-47.9-.572-55.218-34.063l-.207-.947c-2.771-12.681-4.86-22.245-8.13-26.443-2.591-3.327-8.974-1.191-24.14,9.406-17.06,11.92-35.191,25.351-53.638,39.014-62.995,46.662-129.548,95.96-159.8,89.481-16.489-3.533-23.113-19.258-15.1-52.823,9.945-41.657,22.806-97.466,30.02-142.114,6.181-38.252,9.691-67.386,5.714-66.229-16.646,4.841-44.288,25.136-71.9,45.411-42.132,30.935-84.2,61.826-100.354,43.317-8.816-10.1-13.4-23.014-17.286-33.953-2.937-8.27-5.368-15.113-7.238-15.926-1.981-.862-4.636-.663-8.419.759-5.222,1.963-11.862,5.958-20.549,12.205-14.813,10.653-27.113,18.53-37.206,22.788-12.36,5.215-22.152,5.437-29.8-.564-9.584-7.523-10.693-19.976-13.506-51.551-.729-8.192-1.565-17.569-2.23-24.292l-.494-5.042c-1.641-16.855-2.935-30.147-6.548-38.381-4.647-10.588-16.014-11.839-45.582-.2-17.948,7.067-40.494,22.088-65.462,42.312C888.644,2178.669,382.23,2555.9,351.142,2588.006Zm1335.581-75.539,18.659,37.743a140.354,140.354,0,0,0,23.3-10.815l-32.027-64.784C1693.355,2487.57,1689.967,2500.332,1686.723,2512.467Zm11.208,39.7-13.993-28.3c-3.8,18.226-1.753,26.855,4.533,28.365A23.364,23.364,0,0,0,1697.931,2552.165Zm2.487-92.636,36.97,74.781c6.2-3.756,12.749-8,19.587-12.645l-48.395-97.892c-2.444,11.721-5.226,23.751-8.162,35.756Zm12.106-56.155,54.9,111.041q8.266-5.849,16.948-12.307l-67.011-135.548q-.247,3.4-.6,6.941C1715.836,2382.835,1714.373,2392.884,1712.524,2403.375Zm-385.529-51.52c2.243,5.442,4.639,11.3,7.035,17.151,4.533,11.075,9.067,22.151,13.628,32.965a170.376,170.376,0,0,0,18.089-8.792c-6.294-14.452-12.883-30.553-19.473-46.653-3.87-9.456-7.741-18.913-11.589-28.114C1332.1,2329.917,1329.5,2341.177,1326.995,2351.854Zm13.514,52.652c-4.47-10.6-9.032-21.75-13.594-32.9-.965-2.359-1.931-4.718-2.909-7.1q-.714,3.007-1.412,5.927c-5.621,23.547-3.608,34.015,3.561,35.551C1329.933,2406.792,1334.781,2406.221,1340.509,2404.506Zm-2.3-102.033c5.614,13.087,11.285,26.942,16.955,40.795,6.252,15.277,12.5,30.553,18.859,45.171,4.846-2.869,9.9-6.015,15.124-9.387-9.915-20.7-19.74-44.732-29.358-68.264-5.24-12.819-10.418-25.489-15.472-37.29C1342.374,2283.1,1340.316,2292.818,1338.212,2302.474Zm9.929-48.448c7.326,16.164,14.761,34.353,22.323,52.856,9.288,22.725,18.771,45.923,28.236,65.885q7.183-4.812,14.674-10.047c-9.22-19.545-18.8-42.958-28.385-66.37-10.671-26.073-21.342-52.146-31.538-72.829q-.291,1.876-.6,3.778C1351.473,2235.843,1349.882,2244.812,1348.141,2254.026Zm8.28-53.115c13.143,22.775,27.081,56.828,41.019,90.882,9.041,22.09,18.083,44.181,26.926,63.172q6.164-4.4,12.435-8.95c-10.594-21.343-21.524-48.046-32.452-74.749-16.7-40.8-33.4-81.607-46.723-100.708A200.376,200.376,0,0,1,1356.421,2200.91Zm-306.609-48.5c6.575,9.224,12.295,18.513,17.9,27.612,6.964,11.31,13.744,22.32,21.583,32.238,4.021-2.5,8.351-5.385,13-8.625-8.871-11.213-17.473-24.665-26.075-38.116-10.042-15.7-20.083-31.4-30.005-42.792,1.489,7.973,2.4,17.341,3.444,28.044Zm31.325,64.6c-7.957-10.159-14.732-21.161-21.687-32.456-2.539-4.123-5.1-8.286-7.748-12.447.281,3.053.513,5.658.731,8.112,2.424,27.22,3.381,37.954,8.006,41.585,2.539,1.992,7.155,1.343,13.834-1.474Q1077.494,2218.966,1081.137,2217.006Z" transform="translate(-9.902 -1513.201)" fill="#a64de9"/>
</svg>
